<?xml version="1.0" standalone="no"?>
<!DOCTYPE svg PUBLIC "-//W3C//DTD SVG 20010904//EN"
 "http://www.w3.org/TR/2001/REC-SVG-20010904/DTD/svg10.dtd">
<svg version="1.0" xmlns="http://www.w3.org/2000/svg"
 width="175.000000pt" height="175.000000pt" viewBox="0 0 175.000000 175.000000"
 preserveAspectRatio="xMidYMid meet">
<metadata>
Created by potrace 1.11, written by Peter Selinger 2001-2013
</metadata>
<g transform="translate(0.000000,175.000000) scale(0.100000,-0.100000)"
fill="#000000" stroke="none">
<path d="M475 1456 c-220 -146 -408 -271 -417 -278 -15 -12 -5 -21 85 -78 56
-35 244 -156 418 -267 l317 -203 73 48 c41 26 220 142 399 256 358 229 369
237 355 242 -8 3 -320 209 -414 273 -58 39 -412 271 -414 271 -1 0 -182 -119
-402 -264z m680 -105 c143 -95 261 -175 263 -179 2 -7 -177 -128 -204 -139 -8
-3 -53 24 -101 59 -49 35 -94 67 -101 72 -14 8 -49 -11 -92 -51 -14 -13 -29
-23 -34 -23 -16 0 16 -29 95 -86 43 -32 79 -60 79 -64 0 -11 -179 -122 -189
-118 -18 7 -541 343 -540 348 0 6 199 137 215 142 9 2 133 -79 154 -102 3 -3
20 -15 38 -28 38 -27 44 -25 115 39 l38 34 -100 75 c-58 42 -97 78 -92 83 28
28 168 116 181 113 8 -2 132 -80 275 -175z"/>
<path d="M107 904 l-68 -45 221 -142 c121 -78 232 -149 245 -157 14 -8 82 -52
152 -97 71 -45 134 -83 142 -85 11 -2 14 15 15 81 1 75 -1 85 -22 101 -18 15
-154 103 -247 160 -13 8 -98 62 -187 120 -90 58 -167 106 -173 107 -5 2 -41
-18 -78 -43z"/>
<path d="M1253 748 l-313 -201 0 -89 c0 -49 4 -88 9 -86 18 7 761 483 761 488
0 6 -109 77 -130 84 -9 3 -145 -78 -327 -196z"/>
<path d="M117 574 c-37 -24 -67 -48 -67 -53 0 -6 10 -16 22 -22 23 -12 222
-139 551 -351 93 -60 173 -109 179 -111 8 -1 12 27 12 86 l1 87 -316 203 -316
204 -66 -43z"/>
<path d="M1554 604 c-117 -74 -440 -281 -516 -331 l-98 -63 0 -91 0 -91 33 19
c76 46 713 456 725 467 10 10 -2 21 -56 57 -59 40 -71 44 -88 33z"/>
</g>
</svg>
