<svg version="1" xmlns="http://www.w3.org/2000/svg" width="733.333" height="733.333" viewBox="0 0 550.000000 550.000000"><path d="M252.1 10.1C219.4 13 189 21.6 158.5 36.5c-28 13.6-48.4 28.3-71 51-15.8 15.8-26.3 28.7-37 45.6C2.6 208.6-4 304.1 33 385.3c13.4 29.3 30.8 54.6 53.5 77.3 42.8 43 95.2 68.9 155.5 77 16.9 2.3 50.1 2.3 67 0 59.5-8 112.4-33.9 154.1-75.6 24.1-24 41.6-49.2 55.4-79.6 29.5-65.3 30.9-142.6 3.9-208.9-5.8-14.2-16.5-34.7-23.9-45.9-19.9-30.3-50.9-60.6-82-80.1-11.3-7.1-35.9-19.2-48.9-24-35.9-13.2-77.4-18.8-115.5-15.4zm50.8 56.3c13.5 8.9 41.5 27.5 62.1 41.1 20.6 13.7 54.6 36.1 75.5 50 20.9 13.8 42.1 27.8 47 31 14.4 9.3 14.2 7.8 1.6 15.9-6 3.9-18.9 12.3-28.7 18.6-9.8 6.3-21.7 14-26.5 17-10.4 6.5-43.6 27.7-59.7 38.2-6.2 4-13.2 8.5-15.5 9.9-2.3 1.5-8.9 5.7-14.7 9.4-5.8 3.7-14.3 9.2-19 12.2-4.7 3-15 9.7-23 14.9-8 5.2-17.1 11-20.3 12.9L276 341l-7.3-4.6c-3.9-2.5-14.4-9.2-23.2-14.9-8.8-5.8-20.7-13.4-26.5-17.1-5.8-3.6-17-10.8-25-15.9-8-5.2-18.1-11.7-22.5-14.5-4.4-2.8-11.4-7.4-15.5-10.1-4.1-2.7-9.1-5.8-11-6.9-1.9-1.1-6.8-4.2-10.7-6.8-4-2.6-13.2-8.5-20.5-13.2-7.3-4.6-19.8-12.7-27.8-17.8-15.7-10.2-18.3-11.9-27.8-17.9-7.1-4.6-7.4-3.7 4.3-11.5 48.4-31.8 70.3-46.3 87.4-57.6 11.3-7.4 35.8-23.6 54.5-36.1 18.8-12.4 34.9-23.1 35.8-23.6.9-.6 9.2-6.1 18.5-12.2 9.2-6.2 17.4-11.1 18.2-10.8.7.3 12.4 7.9 26 16.9zm-209 190.8c4 2.4 17 10.8 36.1 23.2 6.9 4.5 20.8 13.5 31 20 10.2 6.4 25.5 16.2 34 21.7s18.4 11.8 22 14.1c3.6 2.2 14.5 9.2 24.3 15.5l17.7 11.5v24.4c0 13.4-.3 24.4-.8 24.4-.7 0-14-8.5-71.7-45.6-8.2-5.3-26.5-17-40.5-26-14-8.9-30.7-19.6-37-23.7-37.8-24.4-54.2-34.8-55.5-35.3-.9-.4-1.5-1-1.3-1.5.4-1 35.9-24.7 37.2-24.8.5-.1 2.5.9 4.5 2.1zm387.8 9.9c10 6.7 18.3 12.4 18.3 12.8-.1.3-6.1 4.4-13.5 9.1-17.2 10.9-31 19.6-53.5 34-23.5 15-46.9 29.9-68.2 43.5-9.5 6-20.1 12.9-23.6 15.2-3.5 2.4-6.6 4.3-6.9 4.3-.3 0-1.9 1-3.6 2.2-1.7 1.3-4 2.7-4.9 3.3-1 .5-7.8 4.8-15.1 9.5-7.2 4.6-14.2 9-15.4 9.8l-2.3 1.4v-48.9l13-8.4c7.2-4.6 24.7-15.8 38.9-24.9 41.4-26.5 48.5-31 61.9-39.8 7-4.5 13.4-8.5 14.2-8.9.8-.4 4.7-2.8 8.5-5.3 3.9-2.6 11.2-7.3 16.3-10.6 5.2-3.2 10.8-6.9 12.5-8.1 1.8-1.2 3.6-2.2 4.1-2.2.5-.1 9.2 5.4 19.3 12zm-368.9 92.1c12 7.9 22.6 14.7 23.5 15.3.9.5 11.8 7.6 24.4 15.6 12.5 8 39.2 25.1 59.3 37.9 20.1 12.8 37.2 23.9 38 24.6 1.3 1.1 1.5 5 1.2 25.8l-.3 24.6-7.7-5c-4.2-2.7-9.3-5.9-11.2-7-1.9-1.1-8.9-5.6-15.5-9.9-6.6-4.4-17.4-11.4-24-15.6-6.6-4.1-17.8-11.3-25-16-7.1-4.7-14.6-9.4-16.5-10.5-1.9-1.1-8.9-5.6-15.5-10s-12.7-8.4-13.5-8.8c-1.6-.8-7.4-4.5-25.9-16.5-6.1-4-14.3-9.2-18.2-11.7-14.3-9-29.5-18.9-31.7-20.7l-2.4-1.8 18.4-12.2c10-6.7 18.8-12.2 19.5-12.2.7-.1 11.1 6.3 23.1 14.1zm368-2.6c9.7 6.4 18.1 12 18.6 12.5.9.8-3 4.8-4.6 4.9-.4 0-8.2 4.8-17.3 10.7-9.1 6-18.7 12.1-21.3 13.8-2.6 1.6-10.8 6.8-18.2 11.7-17.4 11.3-38.2 24.6-54.5 35-7.1 4.5-18.2 11.6-24.6 15.8-6.4 4.1-14.8 9.5-18.8 12-3.9 2.5-14.4 9.2-23.4 15.1-8.9 5.8-17.9 11.5-19.9 12.8l-3.8 2.3v-49.9l13-8.4c7.2-4.6 18.1-11.6 24.3-15.6 12.3-7.8 25.6-16.3 35.7-22.8 3.6-2.3 11.4-7.3 17.3-11.1 6-3.8 13.7-8.8 17.3-11.2 3.5-2.3 6.6-4.2 6.8-4.2.2 0 5-3.1 10.7-6.8 5.7-3.7 12.4-8.1 14.9-9.6 2.5-1.6 9.9-6.3 16.5-10.6s12.4-7.9 12.8-7.9c.4-.1 8.8 5.1 18.5 11.5z"/><path d="M250.2 115.7l-25.4 16.7 2.9 2.6c2.5 2.1 17.5 13.2 44.9 33.3 3.4 2.5 6.4 5 6.8 5.5.3.5-4 4.5-9.6 8.8-5.5 4.4-12.5 9.8-15.4 12.1-2.9 2.4-5.9 4.3-6.6 4.3-.7 0-7.1-4.4-14.3-9.8-31.7-23.7-43.4-32.2-44.4-32.2-.5 0-7.7 4.4-15.8 9.8-8.1 5.4-21.4 14.2-29.5 19.5-8.2 5.3-14.8 10-14.8 10.4.1.5 3.3 2.8 7.3 5.3s13.1 8.2 20.2 12.8c7.2 4.6 29.4 18.8 49.5 31.7 20.1 12.8 42.3 27.1 49.4 31.7 7.1 4.6 14.8 9.4 17 10.7l4.2 2.4 11.4-7.5c6.3-4.1 17.8-11.4 25.4-16.3l13.9-8.9-2.9-2.3c-1.6-1.3-7.2-5.5-12.4-9.3-26.8-19.5-32.7-23.9-33.8-25.2-1-1.2 0-2.4 5.6-6.9 3.7-3 7.6-6.2 8.7-7.2 1.1-1 5.2-4.3 9.2-7.4l7.2-5.5 10.4 7.9c22.1 16.6 43.6 32.3 44.2 32.3.4 0 3-1.5 5.8-3.4 2.9-1.8 9.7-6.2 15.2-9.6 5.5-3.5 12.9-8.2 16.5-10.5 3.6-2.3 10.3-6.6 14.9-9.6 7-4.5 8.1-5.5 6.7-6.4-.9-.5-20.2-13.3-42.9-28.3-81.7-54.1-101.7-67.3-103-67.7-.6-.3-12.6 7-26.5 16.2z"/></svg>